G75*
%MOIN*%
%OFA0B0*%
%FSLAX24Y24*%
%IPPOS*%
%LPD*%
%AMOC8*
5,1,8,0,0,1.08239X$1,22.5*
%
%ADD10C,0.0000*%
%ADD11R,0.0866X0.0236*%
%ADD12R,0.0515X0.0515*%
%ADD13C,0.0515*%
%ADD14R,0.0157X0.0315*%
%ADD15C,0.0700*%
%ADD16R,0.0630X0.0787*%
%ADD17R,0.0787X0.0630*%
%ADD18R,0.0630X0.0709*%
%ADD19R,0.0512X0.0591*%
%ADD20R,0.0591X0.0512*%
%ADD21OC8,0.0630*%
%ADD22OC8,0.0520*%
%ADD23C,0.0160*%
%ADD24R,0.0396X0.0396*%
D10*
X000180Y000180D02*
X000180Y020050D01*
X040172Y020050D01*
X040172Y000180D01*
X000180Y000180D01*
X020330Y012180D02*
X020332Y012217D01*
X020338Y012254D01*
X020348Y012290D01*
X020361Y012325D01*
X020378Y012358D01*
X020399Y012389D01*
X020423Y012417D01*
X020450Y012443D01*
X020479Y012466D01*
X020510Y012486D01*
X020544Y012502D01*
X020579Y012515D01*
X020615Y012524D01*
X020652Y012529D01*
X020689Y012530D01*
X020726Y012527D01*
X020763Y012520D01*
X020799Y012509D01*
X020833Y012495D01*
X020866Y012477D01*
X020896Y012455D01*
X020924Y012431D01*
X020949Y012403D01*
X020972Y012373D01*
X020991Y012341D01*
X021006Y012307D01*
X021018Y012272D01*
X021026Y012236D01*
X021030Y012199D01*
X021030Y012161D01*
X021026Y012124D01*
X021018Y012088D01*
X021006Y012053D01*
X020991Y012019D01*
X020972Y011987D01*
X020949Y011957D01*
X020924Y011929D01*
X020896Y011905D01*
X020866Y011883D01*
X020833Y011865D01*
X020799Y011851D01*
X020763Y011840D01*
X020726Y011833D01*
X020689Y011830D01*
X020652Y011831D01*
X020615Y011836D01*
X020579Y011845D01*
X020544Y011858D01*
X020510Y011874D01*
X020479Y011894D01*
X020450Y011917D01*
X020423Y011943D01*
X020399Y011971D01*
X020378Y012002D01*
X020361Y012035D01*
X020348Y012070D01*
X020338Y012106D01*
X020332Y012143D01*
X020330Y012180D01*
X020330Y018180D02*
X020332Y018217D01*
X020338Y018254D01*
X020348Y018290D01*
X020361Y018325D01*
X020378Y018358D01*
X020399Y018389D01*
X020423Y018417D01*
X020450Y018443D01*
X020479Y018466D01*
X020510Y018486D01*
X020544Y018502D01*
X020579Y018515D01*
X020615Y018524D01*
X020652Y018529D01*
X020689Y018530D01*
X020726Y018527D01*
X020763Y018520D01*
X020799Y018509D01*
X020833Y018495D01*
X020866Y018477D01*
X020896Y018455D01*
X020924Y018431D01*
X020949Y018403D01*
X020972Y018373D01*
X020991Y018341D01*
X021006Y018307D01*
X021018Y018272D01*
X021026Y018236D01*
X021030Y018199D01*
X021030Y018161D01*
X021026Y018124D01*
X021018Y018088D01*
X021006Y018053D01*
X020991Y018019D01*
X020972Y017987D01*
X020949Y017957D01*
X020924Y017929D01*
X020896Y017905D01*
X020866Y017883D01*
X020833Y017865D01*
X020799Y017851D01*
X020763Y017840D01*
X020726Y017833D01*
X020689Y017830D01*
X020652Y017831D01*
X020615Y017836D01*
X020579Y017845D01*
X020544Y017858D01*
X020510Y017874D01*
X020479Y017894D01*
X020450Y017917D01*
X020423Y017943D01*
X020399Y017971D01*
X020378Y018002D01*
X020361Y018035D01*
X020348Y018070D01*
X020338Y018106D01*
X020332Y018143D01*
X020330Y018180D01*
X036330Y018180D02*
X036332Y018217D01*
X036338Y018254D01*
X036348Y018290D01*
X036361Y018325D01*
X036378Y018358D01*
X036399Y018389D01*
X036423Y018417D01*
X036450Y018443D01*
X036479Y018466D01*
X036510Y018486D01*
X036544Y018502D01*
X036579Y018515D01*
X036615Y018524D01*
X036652Y018529D01*
X036689Y018530D01*
X036726Y018527D01*
X036763Y018520D01*
X036799Y018509D01*
X036833Y018495D01*
X036866Y018477D01*
X036896Y018455D01*
X036924Y018431D01*
X036949Y018403D01*
X036972Y018373D01*
X036991Y018341D01*
X037006Y018307D01*
X037018Y018272D01*
X037026Y018236D01*
X037030Y018199D01*
X037030Y018161D01*
X037026Y018124D01*
X037018Y018088D01*
X037006Y018053D01*
X036991Y018019D01*
X036972Y017987D01*
X036949Y017957D01*
X036924Y017929D01*
X036896Y017905D01*
X036866Y017883D01*
X036833Y017865D01*
X036799Y017851D01*
X036763Y017840D01*
X036726Y017833D01*
X036689Y017830D01*
X036652Y017831D01*
X036615Y017836D01*
X036579Y017845D01*
X036544Y017858D01*
X036510Y017874D01*
X036479Y017894D01*
X036450Y017917D01*
X036423Y017943D01*
X036399Y017971D01*
X036378Y018002D01*
X036361Y018035D01*
X036348Y018070D01*
X036338Y018106D01*
X036332Y018143D01*
X036330Y018180D01*
X036330Y012180D02*
X036332Y012217D01*
X036338Y012254D01*
X036348Y012290D01*
X036361Y012325D01*
X036378Y012358D01*
X036399Y012389D01*
X036423Y012417D01*
X036450Y012443D01*
X036479Y012466D01*
X036510Y012486D01*
X036544Y012502D01*
X036579Y012515D01*
X036615Y012524D01*
X036652Y012529D01*
X036689Y012530D01*
X036726Y012527D01*
X036763Y012520D01*
X036799Y012509D01*
X036833Y012495D01*
X036866Y012477D01*
X036896Y012455D01*
X036924Y012431D01*
X036949Y012403D01*
X036972Y012373D01*
X036991Y012341D01*
X037006Y012307D01*
X037018Y012272D01*
X037026Y012236D01*
X037030Y012199D01*
X037030Y012161D01*
X037026Y012124D01*
X037018Y012088D01*
X037006Y012053D01*
X036991Y012019D01*
X036972Y011987D01*
X036949Y011957D01*
X036924Y011929D01*
X036896Y011905D01*
X036866Y011883D01*
X036833Y011865D01*
X036799Y011851D01*
X036763Y011840D01*
X036726Y011833D01*
X036689Y011830D01*
X036652Y011831D01*
X036615Y011836D01*
X036579Y011845D01*
X036544Y011858D01*
X036510Y011874D01*
X036479Y011894D01*
X036450Y011917D01*
X036423Y011943D01*
X036399Y011971D01*
X036378Y012002D01*
X036361Y012035D01*
X036348Y012070D01*
X036338Y012106D01*
X036332Y012143D01*
X036330Y012180D01*
D11*
X032204Y006430D03*
X032204Y005930D03*
X032204Y005430D03*
X032204Y004930D03*
X030156Y004930D03*
X030156Y005430D03*
X030156Y005930D03*
X030156Y006430D03*
X023704Y004430D03*
X023704Y003930D03*
X023704Y003430D03*
X023704Y002930D03*
X021656Y002930D03*
X021656Y003430D03*
X021656Y003930D03*
X021656Y004430D03*
X014704Y007680D03*
X014704Y008180D03*
X014704Y008680D03*
X014704Y009180D03*
X014704Y009680D03*
X014704Y010180D03*
X014704Y010680D03*
X012656Y010680D03*
X012656Y010180D03*
X012656Y009680D03*
X012656Y009180D03*
X012656Y008680D03*
X012656Y008180D03*
X012656Y007680D03*
X005204Y007680D03*
X005204Y008180D03*
X005204Y008680D03*
X005204Y009180D03*
X005204Y009680D03*
X005204Y010180D03*
X005204Y010680D03*
X003156Y010680D03*
X003156Y010180D03*
X003156Y009680D03*
X003156Y009180D03*
X003156Y008680D03*
X003156Y008180D03*
X003156Y007680D03*
D12*
X035680Y018180D03*
D13*
X034680Y018180D03*
X033680Y018180D03*
X032680Y018180D03*
X031680Y018180D03*
X030680Y018180D03*
X029680Y018180D03*
X028680Y018180D03*
X027680Y018180D03*
X026680Y018180D03*
X025680Y018180D03*
X024680Y018180D03*
X023680Y018180D03*
X022680Y018180D03*
X021680Y018180D03*
X021680Y012180D03*
X022680Y012180D03*
X023680Y012180D03*
X024680Y012180D03*
X025680Y012180D03*
X026680Y012180D03*
X027680Y012180D03*
X028680Y012180D03*
X029680Y012180D03*
X030680Y012180D03*
X031680Y012180D03*
X032680Y012180D03*
X033680Y012180D03*
X034680Y012180D03*
X035680Y012180D03*
D14*
X013436Y016865D03*
X013180Y016865D03*
X012924Y016865D03*
X012924Y017495D03*
X013180Y017495D03*
X013436Y017495D03*
D15*
X024180Y007180D03*
X037180Y005680D03*
D16*
X031731Y003180D03*
X030629Y003180D03*
X019731Y008680D03*
X018629Y008680D03*
X013231Y004180D03*
X012129Y004180D03*
X012129Y014680D03*
X013231Y014680D03*
X010731Y016180D03*
X009629Y016180D03*
X009731Y018180D03*
X008629Y018180D03*
D17*
X016680Y013731D03*
X016680Y012629D03*
X027680Y008231D03*
X027680Y007129D03*
X034180Y007231D03*
X034180Y006129D03*
X027680Y003231D03*
X027680Y002129D03*
X019180Y003129D03*
X019180Y004231D03*
D18*
X021629Y005680D03*
X022731Y005680D03*
D19*
X031306Y007680D03*
X032054Y007680D03*
X033806Y016680D03*
X034554Y016680D03*
X025554Y016680D03*
X024806Y016680D03*
D20*
X011180Y007054D03*
X011180Y006306D03*
X025180Y004054D03*
X025180Y003306D03*
D21*
X022680Y007180D03*
X021680Y007180D03*
D22*
X017680Y005180D03*
X014180Y002680D03*
X011180Y002680D03*
X017680Y002180D03*
D23*
X018180Y002180D01*
X019129Y003129D01*
X019180Y003129D01*
X019680Y004180D02*
X020430Y003430D01*
X021656Y003430D01*
X021656Y003930D02*
X020930Y003930D01*
X020680Y004180D01*
X020680Y005680D01*
X019680Y006680D01*
X016680Y006680D01*
X015180Y006680D01*
X013680Y006680D02*
X013680Y007680D01*
X014180Y008180D01*
X014704Y008180D01*
X014704Y007680D02*
X015680Y007680D01*
X016680Y008680D01*
X016680Y012629D01*
X015680Y011680D02*
X015680Y010680D01*
X015180Y010180D01*
X014704Y010180D01*
X014704Y009680D02*
X016180Y009680D01*
X016180Y010680D01*
X014704Y010680D02*
X014704Y011656D01*
X014680Y011680D01*
X013680Y012180D02*
X015231Y013731D01*
X016680Y013731D01*
X016680Y014680D01*
X018680Y016680D01*
X017865Y017495D01*
X013436Y017495D01*
X013180Y017495D01*
X012924Y017495D02*
X012239Y018180D01*
X009731Y018180D01*
X008629Y018180D02*
X007680Y018180D01*
X004180Y014680D01*
X004180Y010180D01*
X004180Y009180D01*
X005204Y009180D01*
X006180Y009180D01*
X006180Y008180D01*
X007680Y008180D01*
X008680Y007180D01*
X008680Y005680D01*
X010180Y005680D01*
X010680Y005180D01*
X012180Y005180D01*
X013680Y006680D01*
X012180Y006180D02*
X012054Y006306D01*
X011180Y006306D01*
X011180Y007054D02*
X011806Y007680D01*
X012656Y007680D01*
X013180Y007680D01*
X013680Y008180D01*
X013680Y012180D01*
X012180Y011680D02*
X012180Y011180D01*
X008180Y011180D01*
X008180Y009180D01*
X009680Y007680D01*
X009680Y006680D01*
X007180Y007180D02*
X005680Y007180D01*
X005204Y007656D01*
X005204Y007680D01*
X005204Y008180D02*
X006180Y008180D01*
X005204Y008680D02*
X004180Y008680D01*
X004180Y006680D01*
X007180Y003680D01*
X011180Y003680D01*
X011680Y004180D01*
X012129Y004180D01*
X011180Y003680D02*
X011180Y002680D01*
X013231Y004180D02*
X013680Y004180D01*
X014180Y003680D01*
X014180Y002680D01*
X017680Y005180D02*
X018231Y005180D01*
X019180Y004231D01*
X019231Y004180D01*
X019680Y004180D01*
X021656Y004430D02*
X022731Y005505D01*
X022731Y005680D01*
X024180Y005680D01*
X025180Y005680D01*
X025680Y005180D01*
X024680Y004680D02*
X025180Y004180D01*
X026680Y004180D01*
X026680Y006180D01*
X025680Y007180D01*
X025680Y008180D01*
X024180Y007180D02*
X024180Y005680D01*
X022731Y005680D02*
X022680Y005731D01*
X022680Y007180D01*
X021680Y007180D02*
X021629Y007129D01*
X021629Y005680D01*
X020680Y005680D01*
X023704Y004430D02*
X023954Y004680D01*
X024680Y004680D01*
X025180Y004180D02*
X025180Y004054D01*
X025180Y003306D02*
X025180Y002180D01*
X024804Y002930D02*
X023704Y002930D01*
X021656Y002930D01*
X023704Y003430D02*
X023704Y003930D01*
X024804Y002930D02*
X025180Y003306D01*
X027680Y003231D02*
X027731Y003180D01*
X030629Y003180D01*
X031731Y003180D02*
X031731Y003629D01*
X031180Y004180D01*
X031180Y005680D01*
X031430Y005930D01*
X032204Y005930D01*
X033981Y005930D01*
X034180Y006129D01*
X036680Y006129D01*
X036680Y008180D01*
X037680Y009180D02*
X027680Y009180D01*
X020180Y009180D01*
X020180Y009129D01*
X019731Y008680D01*
X019731Y009629D01*
X018680Y010680D01*
X018680Y015180D01*
X017680Y014680D02*
X017680Y009180D01*
X018629Y008680D02*
X018629Y008629D01*
X017680Y007680D01*
X017629Y007731D01*
X016680Y007680D02*
X016680Y006680D01*
X015680Y008680D02*
X014704Y008680D01*
X014704Y009180D02*
X016180Y009180D01*
X012656Y009180D02*
X009180Y009180D01*
X010180Y009680D02*
X012656Y009680D01*
X012656Y010180D02*
X011180Y010180D01*
X012180Y011180D02*
X012656Y010704D01*
X012656Y010680D01*
X012180Y011680D02*
X016180Y015680D01*
X016680Y015680D01*
X017180Y016680D02*
X015180Y016680D01*
X013231Y014731D01*
X013231Y014680D01*
X012129Y014680D02*
X011680Y014680D01*
X009180Y012180D01*
X006680Y012180D02*
X005180Y012180D01*
X006680Y012180D02*
X006680Y014180D01*
X008680Y016180D01*
X009629Y016180D01*
X010731Y016180D02*
X012239Y016180D01*
X012924Y016865D01*
X013180Y016865D01*
X013436Y016865D01*
X018680Y016680D02*
X019680Y016680D01*
X019680Y011180D01*
X020680Y010180D01*
X025680Y010180D01*
X034180Y010180D01*
X036680Y010180D02*
X036680Y011180D01*
X026180Y011180D01*
X025680Y011680D01*
X025680Y012180D01*
X026680Y013680D02*
X027680Y012680D01*
X027680Y012180D01*
X028680Y012180D02*
X028680Y012680D01*
X026680Y014680D01*
X020680Y014680D01*
X020680Y013680D02*
X026680Y013680D01*
X032180Y015680D02*
X020680Y015680D01*
X019680Y016680D02*
X024806Y016680D01*
X024680Y016806D01*
X024680Y018180D01*
X025554Y016680D02*
X027180Y016680D01*
X032180Y016680D02*
X033806Y016680D01*
X034554Y016680D02*
X038180Y016680D01*
X038680Y016180D01*
X038680Y010180D01*
X037680Y009180D01*
X034180Y008180D02*
X034180Y007180D01*
X033180Y007180D01*
X033129Y007231D01*
X032680Y007680D01*
X032180Y007680D01*
X032204Y007656D01*
X032204Y006430D01*
X032204Y007530D01*
X032054Y007680D01*
X032180Y007680D01*
X031306Y007680D02*
X030180Y007680D01*
X030156Y007656D01*
X030156Y006430D01*
X030156Y005930D02*
X029430Y005930D01*
X029180Y006180D01*
X027680Y006180D01*
X027680Y003231D01*
X029180Y004180D02*
X029930Y004930D01*
X030156Y004930D01*
X030156Y005430D02*
X029430Y005430D01*
X029180Y005180D01*
X027680Y006180D02*
X027680Y007129D01*
X027680Y008231D02*
X027680Y009180D01*
X033129Y007231D02*
X034180Y007231D01*
X036680Y006129D02*
X036731Y006129D01*
X037180Y005680D01*
X027680Y002129D02*
X027680Y001180D01*
X012656Y008180D02*
X011180Y008180D01*
X010680Y008680D02*
X012656Y008680D01*
X007180Y009180D02*
X006680Y009680D01*
X006680Y012180D01*
X003180Y012180D02*
X003156Y012156D01*
X003156Y010680D01*
X003156Y010180D02*
X004180Y010180D01*
X005204Y010180D01*
X005204Y009680D02*
X006680Y009680D01*
X004180Y009180D02*
X003156Y009180D01*
X003156Y008680D01*
X003156Y008180D02*
X001680Y008180D01*
X002680Y007180D02*
X003156Y007656D01*
X003156Y007680D01*
X002680Y007180D02*
X002680Y006680D01*
X004680Y004680D01*
X006180Y006180D02*
X006680Y006180D01*
X008180Y004680D01*
X009680Y004680D01*
X003156Y009680D02*
X001680Y009680D01*
X032180Y015680D02*
X035680Y012180D01*
X034554Y016680D02*
X034554Y017680D01*
X034680Y018180D01*
D24*
X032180Y016680D03*
X027180Y016680D03*
X020680Y015680D03*
X020680Y014680D03*
X020680Y013680D03*
X018680Y015180D03*
X017680Y014680D03*
X016680Y015680D03*
X017180Y016680D03*
X009180Y012180D03*
X011180Y010180D03*
X010180Y009680D03*
X009180Y009180D03*
X010680Y008680D03*
X011180Y008180D03*
X009680Y006680D03*
X007180Y007180D03*
X006180Y006180D03*
X004680Y004680D03*
X009680Y004680D03*
X012180Y006180D03*
X015180Y006680D03*
X016680Y007680D03*
X017680Y007680D03*
X015680Y008680D03*
X016180Y009180D03*
X017680Y009180D03*
X016180Y010680D03*
X015680Y011680D03*
X014680Y011680D03*
X007180Y009180D03*
X001680Y009680D03*
X001680Y008180D03*
X003180Y012180D03*
X005180Y012180D03*
X025180Y002180D03*
X027680Y001180D03*
X029180Y004180D03*
X029180Y005180D03*
X025680Y005180D03*
X030180Y007680D03*
X034180Y008180D03*
X036680Y008180D03*
X036680Y010180D03*
X034180Y010180D03*
X025680Y010180D03*
X025680Y008180D03*
M02*
