G75*
%MOIN*%
%OFA0B0*%
%FSLAX24Y24*%
%IPPOS*%
%LPD*%
%AMOC8*
5,1,8,0,0,1.08239X$1,22.5*
%
%ADD10R,0.0946X0.0316*%
%ADD11C,0.0780*%
%ADD12R,0.0595X0.0595*%
%ADD13C,0.0595*%
%ADD14R,0.0237X0.0395*%
%ADD15R,0.0710X0.0867*%
%ADD16R,0.0867X0.0710*%
%ADD17R,0.0710X0.0789*%
%ADD18R,0.0592X0.0671*%
%ADD19R,0.0671X0.0592*%
%ADD20OC8,0.0710*%
%ADD21OC8,0.0600*%
%ADD22R,0.0476X0.0476*%
D10*
X003156Y007680D03*
X003156Y008180D03*
X003156Y008680D03*
X003156Y009180D03*
X003156Y009680D03*
X003156Y010180D03*
X003156Y010680D03*
X005204Y010680D03*
X005204Y010180D03*
X005204Y009680D03*
X005204Y009180D03*
X005204Y008680D03*
X005204Y008180D03*
X005204Y007680D03*
X012656Y007680D03*
X012656Y008180D03*
X012656Y008680D03*
X012656Y009180D03*
X012656Y009680D03*
X012656Y010180D03*
X012656Y010680D03*
X014704Y010680D03*
X014704Y010180D03*
X014704Y009680D03*
X014704Y009180D03*
X014704Y008680D03*
X014704Y008180D03*
X014704Y007680D03*
X021656Y004430D03*
X021656Y003930D03*
X021656Y003430D03*
X021656Y002930D03*
X023704Y002930D03*
X023704Y003430D03*
X023704Y003930D03*
X023704Y004430D03*
X030156Y004930D03*
X030156Y005430D03*
X030156Y005930D03*
X030156Y006430D03*
X032204Y006430D03*
X032204Y005930D03*
X032204Y005430D03*
X032204Y004930D03*
D11*
X037180Y005680D03*
X036680Y012180D03*
X036680Y018180D03*
X020680Y018180D03*
X020680Y012180D03*
X024180Y007180D03*
D12*
X035680Y018180D03*
D13*
X034680Y018180D03*
X033680Y018180D03*
X032680Y018180D03*
X031680Y018180D03*
X030680Y018180D03*
X029680Y018180D03*
X028680Y018180D03*
X027680Y018180D03*
X026680Y018180D03*
X025680Y018180D03*
X024680Y018180D03*
X023680Y018180D03*
X022680Y018180D03*
X021680Y018180D03*
X021680Y012180D03*
X022680Y012180D03*
X023680Y012180D03*
X024680Y012180D03*
X025680Y012180D03*
X026680Y012180D03*
X027680Y012180D03*
X028680Y012180D03*
X029680Y012180D03*
X030680Y012180D03*
X031680Y012180D03*
X032680Y012180D03*
X033680Y012180D03*
X034680Y012180D03*
X035680Y012180D03*
D14*
X013436Y016865D03*
X013180Y016865D03*
X012924Y016865D03*
X012924Y017495D03*
X013180Y017495D03*
X013436Y017495D03*
D15*
X010731Y016180D03*
X009629Y016180D03*
X012129Y014680D03*
X013231Y014680D03*
X009731Y018180D03*
X008629Y018180D03*
X018629Y008680D03*
X019731Y008680D03*
X013231Y004180D03*
X012129Y004180D03*
X030629Y003180D03*
X031731Y003180D03*
D16*
X027680Y003231D03*
X027680Y002129D03*
X034180Y006129D03*
X034180Y007231D03*
X027680Y007129D03*
X027680Y008231D03*
X019180Y004231D03*
X019180Y003129D03*
X016680Y012629D03*
X016680Y013731D03*
D17*
X021629Y005680D03*
X022731Y005680D03*
D18*
X031306Y007680D03*
X032054Y007680D03*
X033806Y016680D03*
X034554Y016680D03*
X025554Y016680D03*
X024806Y016680D03*
D19*
X011180Y007054D03*
X011180Y006306D03*
X025180Y004054D03*
X025180Y003306D03*
D20*
X022680Y007180D03*
X021680Y007180D03*
D21*
X017680Y005180D03*
X014180Y002680D03*
X011180Y002680D03*
X017680Y002180D03*
D22*
X004680Y004680D03*
X006180Y006180D03*
X007180Y007180D03*
X009680Y006680D03*
X011180Y008180D03*
X010680Y008680D03*
X009180Y009180D03*
X010180Y009680D03*
X011180Y010180D03*
X014680Y011680D03*
X015680Y011680D03*
X016180Y010680D03*
X016180Y009180D03*
X015680Y008680D03*
X016680Y007680D03*
X017680Y007680D03*
X015180Y006680D03*
X012180Y006180D03*
X009680Y004680D03*
X001680Y008180D03*
X001680Y009680D03*
X003180Y012180D03*
X005180Y012180D03*
X009180Y012180D03*
X007180Y009180D03*
X017680Y009180D03*
X025680Y008180D03*
X025680Y010180D03*
X030180Y007680D03*
X034180Y008180D03*
X036680Y008180D03*
X036680Y010180D03*
X034180Y010180D03*
X029180Y005180D03*
X029180Y004180D03*
X025680Y005180D03*
X025180Y002180D03*
X027680Y001180D03*
X020680Y013680D03*
X020680Y014680D03*
X020680Y015680D03*
X018680Y015180D03*
X017680Y014680D03*
X016680Y015680D03*
X017180Y016680D03*
X027180Y016680D03*
X032180Y016680D03*
M02*
