%
M48
M72
T01C0.0236
T02C0.0315
T03C0.0320
T04C0.0400
T05C0.0700
%
T01
X4680Y4680
X6180Y6180
X7180Y7180
X9680Y6680
X11180Y8180
X10680Y8680
X9180Y9180
X10180Y9680
X11180Y10180
X14680Y11680
X15680Y11680
X16180Y10680
X16180Y9180
X15680Y8680
X16680Y7680
X17680Y7680
X15180Y6680
X12180Y6180
X9680Y4680
X1680Y8180
X1680Y9680
X3180Y12180
X5180Y12180
X9180Y12180
X7180Y9180
X17680Y9180
X25680Y8180
X25680Y10180
X30180Y7680
X34180Y8180
X36680Y8180
X36680Y10180
X34180Y10180
X29180Y5180
X29180Y4180
X25680Y5180
X25180Y2180
X27680Y1180
X20680Y13680
X20680Y14680
X20680Y15680
X18680Y15180
X17680Y14680
X16680Y15680
X17180Y16680
X27180Y16680
X32180Y16680
T02
X31680Y18180
X32680Y18180
X33680Y18180
X34680Y18180
X35680Y18180
X30680Y18180
X29680Y18180
X28680Y18180
X27680Y18180
X26680Y18180
X25680Y18180
X24680Y18180
X23680Y18180
X22680Y18180
X21680Y18180
X21680Y12180
X22680Y12180
X23680Y12180
X24680Y12180
X25680Y12180
X26680Y12180
X27680Y12180
X28680Y12180
X29680Y12180
X30680Y12180
X31680Y12180
X32680Y12180
X33680Y12180
X34680Y12180
X35680Y12180
T03
X22680Y7180
X21680Y7180
X17680Y5180
X14180Y2680
X11180Y2680
X17680Y2180
T04
X24180Y7180
X37180Y5680
T05
X36680Y12180
X36680Y18180
X20680Y18180
X20680Y12180
M30
