G75*
%MOIN*%
%OFA0B0*%
%FSLAX24Y24*%
%IPPOS*%
%LPD*%
%AMOC8*
5,1,8,0,0,1.08239X$1,22.5*
%
%ADD10R,0.0515X0.0515*%
%ADD11C,0.0515*%
%ADD12C,0.0700*%
%ADD13OC8,0.0630*%
%ADD14OC8,0.0520*%
%ADD15C,0.0160*%
%ADD16R,0.0396X0.0396*%
D10*
X035680Y018180D03*
D11*
X034680Y018180D03*
X033680Y018180D03*
X032680Y018180D03*
X031680Y018180D03*
X030680Y018180D03*
X029680Y018180D03*
X028680Y018180D03*
X027680Y018180D03*
X026680Y018180D03*
X025680Y018180D03*
X024680Y018180D03*
X023680Y018180D03*
X022680Y018180D03*
X021680Y018180D03*
X021680Y012180D03*
X022680Y012180D03*
X023680Y012180D03*
X024680Y012180D03*
X025680Y012180D03*
X026680Y012180D03*
X027680Y012180D03*
X028680Y012180D03*
X029680Y012180D03*
X030680Y012180D03*
X031680Y012180D03*
X032680Y012180D03*
X033680Y012180D03*
X034680Y012180D03*
X035680Y012180D03*
D12*
X024180Y007180D03*
X037180Y005680D03*
D13*
X022680Y007180D03*
X021680Y007180D03*
D14*
X017680Y005180D03*
X014180Y002680D03*
X011180Y002680D03*
X017680Y002180D03*
D15*
X000660Y000660D02*
X000660Y019570D01*
X039692Y019570D01*
X039692Y000660D01*
X000660Y000660D01*
X000660Y000814D02*
X039692Y000814D01*
X039692Y000973D02*
X000660Y000973D01*
X000660Y001131D02*
X039692Y001131D01*
X039692Y001290D02*
X000660Y001290D01*
X000660Y001448D02*
X039692Y001448D01*
X039692Y001607D02*
X000660Y001607D01*
X000660Y001765D02*
X039692Y001765D01*
X039692Y001924D02*
X000660Y001924D01*
X000660Y002082D02*
X039692Y002082D01*
X039692Y002241D02*
X000660Y002241D01*
X000660Y002399D02*
X010867Y002399D01*
X010760Y002506D02*
X011006Y002260D01*
X011354Y002260D01*
X011600Y002506D01*
X011600Y002854D01*
X011354Y003100D01*
X011006Y003100D01*
X010760Y002854D01*
X010760Y002506D01*
X010760Y002558D02*
X000660Y002558D01*
X000660Y002716D02*
X010760Y002716D01*
X010781Y002875D02*
X000660Y002875D01*
X000660Y003033D02*
X010939Y003033D01*
X011421Y003033D02*
X039692Y003033D01*
X039692Y002875D02*
X011579Y002875D01*
X011600Y002716D02*
X039692Y002716D01*
X039692Y002558D02*
X011600Y002558D01*
X011493Y002399D02*
X039692Y002399D01*
X039692Y003192D02*
X000660Y003192D01*
X000660Y003350D02*
X039692Y003350D01*
X039692Y003509D02*
X000660Y003509D01*
X000660Y003667D02*
X039692Y003667D01*
X039692Y003826D02*
X000660Y003826D01*
X000660Y003984D02*
X039692Y003984D01*
X039692Y004143D02*
X000660Y004143D01*
X000660Y004301D02*
X039692Y004301D01*
X039692Y004460D02*
X010038Y004460D01*
X010038Y004416D02*
X009944Y004322D01*
X009416Y004322D01*
X009322Y004416D01*
X009322Y004944D01*
X009416Y005038D01*
X009440Y005038D01*
X009440Y006322D01*
X009416Y006322D01*
X009322Y006416D01*
X009322Y006944D01*
X009416Y007038D01*
X009944Y007038D01*
X010038Y006944D01*
X010038Y006416D01*
X009944Y006322D01*
X009920Y006322D01*
X009920Y005038D01*
X009944Y005038D01*
X010038Y004944D01*
X010038Y004416D01*
X010038Y004618D02*
X039692Y004618D01*
X039692Y004777D02*
X017870Y004777D01*
X017854Y004760D02*
X018100Y005006D01*
X018100Y005354D01*
X017920Y005534D01*
X017920Y007322D01*
X017944Y007322D01*
X018038Y007416D01*
X018038Y007944D01*
X017944Y008038D01*
X017416Y008038D01*
X017322Y007944D01*
X017322Y007416D01*
X017416Y007322D01*
X017440Y007322D01*
X017440Y005534D01*
X017260Y005354D01*
X017260Y005006D01*
X017506Y004760D01*
X017854Y004760D01*
X018029Y004935D02*
X025322Y004935D01*
X025322Y004916D02*
X025416Y004822D01*
X025944Y004822D01*
X026038Y004916D01*
X026038Y004940D01*
X028822Y004940D01*
X028822Y004916D01*
X028916Y004822D01*
X029444Y004822D01*
X029538Y004916D01*
X029538Y005444D01*
X029444Y005538D01*
X028916Y005538D01*
X028822Y005444D01*
X028822Y005420D01*
X026038Y005420D01*
X026038Y005444D01*
X025944Y005538D01*
X025416Y005538D01*
X025322Y005444D01*
X025322Y004916D01*
X025322Y005094D02*
X018100Y005094D01*
X018100Y005252D02*
X025322Y005252D01*
X025322Y005411D02*
X018043Y005411D01*
X017920Y005569D02*
X036674Y005569D01*
X036670Y005579D02*
X036748Y005391D01*
X036891Y005248D01*
X037079Y005170D01*
X037281Y005170D01*
X037469Y005248D01*
X037612Y005391D01*
X037690Y005579D01*
X037690Y005781D01*
X037612Y005969D01*
X037469Y006112D01*
X037281Y006190D01*
X037079Y006190D01*
X036891Y006112D01*
X036748Y005969D01*
X036670Y005781D01*
X036670Y005579D01*
X036670Y005728D02*
X017920Y005728D01*
X017920Y005886D02*
X036713Y005886D01*
X036823Y006045D02*
X017920Y006045D01*
X017920Y006203D02*
X039692Y006203D01*
X039692Y006045D02*
X037537Y006045D01*
X037647Y005886D02*
X039692Y005886D01*
X039692Y005728D02*
X037690Y005728D01*
X037686Y005569D02*
X039692Y005569D01*
X039692Y005411D02*
X037620Y005411D01*
X037473Y005252D02*
X039692Y005252D01*
X039692Y005094D02*
X029538Y005094D01*
X029538Y005252D02*
X036887Y005252D01*
X036740Y005411D02*
X029538Y005411D01*
X029180Y005180D02*
X025680Y005180D01*
X026038Y004935D02*
X028822Y004935D01*
X029538Y004935D02*
X039692Y004935D01*
X039692Y006362D02*
X017920Y006362D01*
X017920Y006520D02*
X039692Y006520D01*
X039692Y006679D02*
X024302Y006679D01*
X024281Y006670D02*
X024469Y006748D01*
X024612Y006891D01*
X024690Y007079D01*
X024690Y007281D01*
X024612Y007469D01*
X024469Y007612D01*
X024281Y007690D01*
X024079Y007690D01*
X023891Y007612D01*
X023748Y007469D01*
X023670Y007281D01*
X023670Y007079D01*
X023748Y006891D01*
X023891Y006748D01*
X024079Y006670D01*
X024281Y006670D01*
X024058Y006679D02*
X017920Y006679D01*
X017920Y006837D02*
X021351Y006837D01*
X021483Y006705D02*
X021205Y006983D01*
X021205Y007377D01*
X021483Y007655D01*
X021877Y007655D01*
X022155Y007377D01*
X022155Y006983D01*
X021877Y006705D01*
X021483Y006705D01*
X021205Y006996D02*
X017920Y006996D01*
X017920Y007154D02*
X021205Y007154D01*
X021205Y007313D02*
X017920Y007313D01*
X018038Y007471D02*
X021299Y007471D01*
X021458Y007630D02*
X018038Y007630D01*
X018038Y007788D02*
X039692Y007788D01*
X039692Y007630D02*
X024427Y007630D01*
X024610Y007471D02*
X039692Y007471D01*
X039692Y007313D02*
X024677Y007313D01*
X024690Y007154D02*
X039692Y007154D01*
X039692Y006996D02*
X024656Y006996D01*
X024558Y006837D02*
X039692Y006837D01*
X039692Y007947D02*
X037038Y007947D01*
X037038Y007916D02*
X037038Y008444D01*
X036944Y008538D01*
X036920Y008538D01*
X036920Y009822D01*
X036944Y009822D01*
X037038Y009916D01*
X037038Y010444D01*
X036944Y010538D01*
X036416Y010538D01*
X036322Y010444D01*
X036322Y009916D01*
X036416Y009822D01*
X036440Y009822D01*
X036440Y008538D01*
X036416Y008538D01*
X036322Y008444D01*
X036322Y007916D01*
X036416Y007822D01*
X036944Y007822D01*
X037038Y007916D01*
X037038Y008105D02*
X039692Y008105D01*
X039692Y008264D02*
X037038Y008264D01*
X037038Y008422D02*
X039692Y008422D01*
X039692Y008581D02*
X036920Y008581D01*
X036920Y008739D02*
X039692Y008739D01*
X039692Y008898D02*
X036920Y008898D01*
X036920Y009056D02*
X039692Y009056D01*
X039692Y009215D02*
X036920Y009215D01*
X036920Y009373D02*
X039692Y009373D01*
X039692Y009532D02*
X036920Y009532D01*
X036920Y009690D02*
X039692Y009690D01*
X039692Y009849D02*
X036971Y009849D01*
X037038Y010007D02*
X039692Y010007D01*
X039692Y010166D02*
X037038Y010166D01*
X037038Y010324D02*
X039692Y010324D01*
X039692Y010483D02*
X037000Y010483D01*
X036680Y010180D02*
X036680Y008180D01*
X036322Y008105D02*
X034538Y008105D01*
X034538Y007947D02*
X036322Y007947D01*
X036322Y008264D02*
X034538Y008264D01*
X034538Y008422D02*
X036322Y008422D01*
X036440Y008581D02*
X034420Y008581D01*
X034420Y008538D02*
X034420Y009822D01*
X034444Y009822D01*
X034538Y009916D01*
X034538Y010444D01*
X034444Y010538D01*
X033916Y010538D01*
X033822Y010444D01*
X033822Y009916D01*
X033916Y009822D01*
X033940Y009822D01*
X033940Y008538D01*
X033916Y008538D01*
X033822Y008444D01*
X033822Y007916D01*
X033916Y007822D01*
X034444Y007822D01*
X034538Y007916D01*
X034538Y008444D01*
X034444Y008538D01*
X034420Y008538D01*
X034420Y008739D02*
X036440Y008739D01*
X036440Y008898D02*
X034420Y008898D01*
X034420Y009056D02*
X036440Y009056D01*
X036440Y009215D02*
X034420Y009215D01*
X034420Y009373D02*
X036440Y009373D01*
X036440Y009532D02*
X034420Y009532D01*
X034420Y009690D02*
X036440Y009690D01*
X036389Y009849D02*
X034471Y009849D01*
X034538Y010007D02*
X036322Y010007D01*
X036322Y010166D02*
X034538Y010166D01*
X034538Y010324D02*
X036322Y010324D01*
X036360Y010483D02*
X034500Y010483D01*
X034180Y010180D02*
X034180Y008180D01*
X033822Y008105D02*
X026038Y008105D01*
X026038Y007947D02*
X033822Y007947D01*
X033822Y008264D02*
X026038Y008264D01*
X026038Y008422D02*
X033822Y008422D01*
X033940Y008581D02*
X025920Y008581D01*
X025920Y008538D02*
X025920Y009822D01*
X025944Y009822D01*
X026038Y009916D01*
X026038Y010444D01*
X025944Y010538D01*
X025416Y010538D01*
X025322Y010444D01*
X025322Y009916D01*
X025416Y009822D01*
X025440Y009822D01*
X025440Y008538D01*
X025416Y008538D01*
X025322Y008444D01*
X025322Y007916D01*
X025416Y007822D01*
X025944Y007822D01*
X026038Y007916D01*
X026038Y008444D01*
X025944Y008538D01*
X025920Y008538D01*
X025920Y008739D02*
X033940Y008739D01*
X033940Y008898D02*
X025920Y008898D01*
X025920Y009056D02*
X033940Y009056D01*
X033940Y009215D02*
X025920Y009215D01*
X025920Y009373D02*
X033940Y009373D01*
X033940Y009532D02*
X025920Y009532D01*
X025920Y009690D02*
X033940Y009690D01*
X033889Y009849D02*
X025971Y009849D01*
X026038Y010007D02*
X033822Y010007D01*
X033822Y010166D02*
X026038Y010166D01*
X026038Y010324D02*
X033822Y010324D01*
X033860Y010483D02*
X026000Y010483D01*
X025680Y010180D02*
X025680Y008180D01*
X025322Y008105D02*
X016594Y008105D01*
X016661Y008038D02*
X016038Y008661D01*
X016038Y008822D01*
X016444Y008822D01*
X016538Y008916D01*
X016538Y008940D01*
X017322Y008940D01*
X017322Y008916D01*
X017416Y008822D01*
X017944Y008822D01*
X018038Y008916D01*
X018038Y009444D01*
X017944Y009538D01*
X017416Y009538D01*
X017322Y009444D01*
X017322Y009420D01*
X016538Y009420D01*
X016538Y009440D01*
X016728Y009440D01*
X016816Y009477D01*
X016883Y009544D01*
X019967Y012628D01*
X019850Y012345D01*
X019850Y012015D01*
X019976Y011710D01*
X020210Y011476D01*
X020515Y011350D01*
X020845Y011350D01*
X021150Y011476D01*
X021384Y011710D01*
X021435Y011834D01*
X021444Y011826D01*
X021597Y011763D01*
X021763Y011763D01*
X021916Y011826D01*
X022034Y011944D01*
X022097Y012097D01*
X022097Y012263D01*
X022034Y012416D01*
X021916Y012534D01*
X021763Y012597D01*
X021597Y012597D01*
X021444Y012534D01*
X021435Y012526D01*
X021384Y012650D01*
X021150Y012884D01*
X020845Y013010D01*
X020515Y013010D01*
X020232Y012893D01*
X020661Y013322D01*
X020944Y013322D01*
X021038Y013416D01*
X021038Y013944D01*
X020944Y014038D01*
X020416Y014038D01*
X020322Y013944D01*
X020322Y013661D01*
X016581Y009920D01*
X012132Y009920D01*
X012044Y009883D01*
X011977Y009816D01*
X011940Y009728D01*
X011940Y009279D01*
X011199Y008538D01*
X011038Y008538D01*
X011038Y008944D01*
X010944Y009038D01*
X010920Y009038D01*
X010920Y012440D01*
X014581Y012440D01*
X015322Y011699D01*
X015322Y011416D01*
X015416Y011322D01*
X015944Y011322D01*
X016038Y011416D01*
X016038Y011440D01*
X016728Y011440D01*
X016816Y011477D01*
X016883Y011544D01*
X020661Y015322D01*
X020944Y015322D01*
X021038Y015416D01*
X021038Y015944D01*
X020944Y016038D01*
X020416Y016038D01*
X020322Y015944D01*
X020322Y015661D01*
X016581Y011920D01*
X016038Y011920D01*
X016038Y011944D01*
X015944Y012038D01*
X015661Y012038D01*
X014816Y012883D01*
X014728Y012920D01*
X010632Y012920D01*
X010544Y012883D01*
X010477Y012816D01*
X010440Y012728D01*
X010440Y010038D01*
X009916Y010038D01*
X009822Y009944D01*
X009822Y009416D01*
X009916Y009322D01*
X009940Y009322D01*
X009940Y007632D01*
X009977Y007544D01*
X010044Y007477D01*
X010544Y006977D01*
X010632Y006940D01*
X014581Y006940D01*
X014822Y006699D01*
X014822Y006416D01*
X014916Y006322D01*
X015444Y006322D01*
X015538Y006416D01*
X015538Y006944D01*
X015444Y007038D01*
X015161Y007038D01*
X014883Y007316D01*
X014816Y007383D01*
X014728Y007420D01*
X010779Y007420D01*
X010420Y007779D01*
X010420Y008322D01*
X010822Y008322D01*
X010822Y007916D01*
X010916Y007822D01*
X011444Y007822D01*
X011538Y007916D01*
X011538Y008199D01*
X012316Y008977D01*
X012383Y009044D01*
X012420Y009132D01*
X012420Y009440D01*
X015822Y009440D01*
X015822Y009038D01*
X015416Y009038D01*
X015322Y008944D01*
X015322Y008416D01*
X015416Y008322D01*
X015699Y008322D01*
X016322Y007699D01*
X016322Y007416D01*
X016416Y007322D01*
X016944Y007322D01*
X017038Y007416D01*
X017038Y007944D01*
X016944Y008038D01*
X016661Y008038D01*
X016680Y007680D02*
X015680Y008680D01*
X016038Y008739D02*
X025440Y008739D01*
X025440Y008581D02*
X016119Y008581D01*
X016277Y008422D02*
X025322Y008422D01*
X025322Y008264D02*
X016436Y008264D01*
X015916Y008105D02*
X011538Y008105D01*
X011538Y007947D02*
X016074Y007947D01*
X016233Y007788D02*
X010420Y007788D01*
X010420Y007947D02*
X010822Y007947D01*
X010822Y008105D02*
X010420Y008105D01*
X010420Y008264D02*
X010822Y008264D01*
X011180Y008180D02*
X012180Y009180D01*
X012180Y009680D01*
X016680Y009680D01*
X020680Y013680D01*
X021038Y013653D02*
X039692Y013653D01*
X039692Y013811D02*
X021038Y013811D01*
X021013Y013970D02*
X039692Y013970D01*
X039692Y014128D02*
X020467Y014128D01*
X020347Y013970D02*
X020309Y013970D01*
X020322Y013811D02*
X020150Y013811D01*
X019992Y013653D02*
X020313Y013653D01*
X020155Y013494D02*
X019833Y013494D01*
X019675Y013336D02*
X019996Y013336D01*
X019838Y013177D02*
X019516Y013177D01*
X019358Y013019D02*
X019679Y013019D01*
X019521Y012860D02*
X019199Y012860D01*
X019041Y012702D02*
X019362Y012702D01*
X019204Y012543D02*
X018882Y012543D01*
X018724Y012385D02*
X019045Y012385D01*
X018887Y012226D02*
X018565Y012226D01*
X018407Y012068D02*
X018728Y012068D01*
X018570Y011909D02*
X018248Y011909D01*
X018090Y011751D02*
X018411Y011751D01*
X018253Y011592D02*
X017931Y011592D01*
X017773Y011434D02*
X018094Y011434D01*
X017936Y011275D02*
X017614Y011275D01*
X017456Y011117D02*
X017777Y011117D01*
X017619Y010958D02*
X017297Y010958D01*
X017139Y010800D02*
X017460Y010800D01*
X017302Y010641D02*
X016980Y010641D01*
X016822Y010483D02*
X017143Y010483D01*
X016985Y010324D02*
X016447Y010324D01*
X016444Y010322D02*
X016538Y010416D01*
X016538Y010440D01*
X016728Y010440D01*
X016816Y010477D01*
X020661Y014322D01*
X020944Y014322D01*
X021038Y014416D01*
X021038Y014944D01*
X020944Y015038D01*
X020416Y015038D01*
X020322Y014944D01*
X020322Y014661D01*
X016581Y010920D01*
X016538Y010920D01*
X016538Y010944D01*
X016444Y011038D01*
X015916Y011038D01*
X015822Y010944D01*
X015822Y010416D01*
X015916Y010322D01*
X016444Y010322D01*
X016826Y010166D02*
X010920Y010166D01*
X010920Y010324D02*
X015913Y010324D01*
X015822Y010483D02*
X010920Y010483D01*
X010920Y010641D02*
X015822Y010641D01*
X015822Y010800D02*
X010920Y010800D01*
X010920Y010958D02*
X015836Y010958D01*
X015680Y011180D02*
X014680Y011680D01*
X015270Y011751D02*
X010920Y011751D01*
X010920Y011909D02*
X015112Y011909D01*
X014953Y012068D02*
X010920Y012068D01*
X010920Y012226D02*
X014795Y012226D01*
X014636Y012385D02*
X010920Y012385D01*
X010680Y012680D02*
X014680Y012680D01*
X015680Y011680D01*
X016680Y011680D01*
X020680Y015680D01*
X021038Y015713D02*
X039692Y015713D01*
X039692Y015555D02*
X021038Y015555D01*
X021019Y015396D02*
X039692Y015396D01*
X039692Y015238D02*
X020577Y015238D01*
X020418Y015079D02*
X039692Y015079D01*
X039692Y014921D02*
X021038Y014921D01*
X021038Y014762D02*
X039692Y014762D01*
X039692Y014604D02*
X021038Y014604D01*
X021038Y014445D02*
X039692Y014445D01*
X039692Y014287D02*
X020626Y014287D01*
X020106Y014445D02*
X019784Y014445D01*
X019626Y014287D02*
X019947Y014287D01*
X019789Y014128D02*
X019467Y014128D01*
X019309Y013970D02*
X019630Y013970D01*
X019472Y013811D02*
X019150Y013811D01*
X018992Y013653D02*
X019313Y013653D01*
X019155Y013494D02*
X018833Y013494D01*
X018675Y013336D02*
X018996Y013336D01*
X018838Y013177D02*
X018516Y013177D01*
X018358Y013019D02*
X018679Y013019D01*
X018521Y012860D02*
X018199Y012860D01*
X018041Y012702D02*
X018362Y012702D01*
X018204Y012543D02*
X017882Y012543D01*
X017724Y012385D02*
X018045Y012385D01*
X017887Y012226D02*
X017565Y012226D01*
X017407Y012068D02*
X017728Y012068D01*
X017570Y011909D02*
X017248Y011909D01*
X017090Y011751D02*
X017411Y011751D01*
X017253Y011592D02*
X016931Y011592D01*
X017094Y011434D02*
X016038Y011434D01*
X016524Y010958D02*
X016619Y010958D01*
X016777Y011117D02*
X010920Y011117D01*
X010920Y011275D02*
X016936Y011275D01*
X016680Y010680D02*
X016180Y010680D01*
X016680Y010680D02*
X020680Y014680D01*
X020322Y014762D02*
X020101Y014762D01*
X019943Y014604D02*
X020264Y014604D01*
X020260Y014921D02*
X020322Y014921D01*
X019898Y015238D02*
X019038Y015238D01*
X019038Y015396D02*
X020057Y015396D01*
X020215Y015555D02*
X018645Y015555D01*
X018661Y015538D02*
X017538Y016661D01*
X017538Y016944D01*
X017444Y017038D01*
X016916Y017038D01*
X016822Y016944D01*
X016822Y016416D01*
X016916Y016322D01*
X017199Y016322D01*
X018322Y015199D01*
X018322Y014916D01*
X018416Y014822D01*
X018944Y014822D01*
X019038Y014916D01*
X019038Y015444D01*
X018944Y015538D01*
X018661Y015538D01*
X018486Y015713D02*
X020322Y015713D01*
X020322Y015872D02*
X018328Y015872D01*
X018169Y016030D02*
X020408Y016030D01*
X020952Y016030D02*
X039692Y016030D01*
X039692Y015872D02*
X021038Y015872D01*
X019740Y015079D02*
X019038Y015079D01*
X019038Y014921D02*
X019581Y014921D01*
X019423Y014762D02*
X018038Y014762D01*
X018038Y014604D02*
X019264Y014604D01*
X019106Y014445D02*
X018038Y014445D01*
X018038Y014416D02*
X017944Y014322D01*
X017416Y014322D01*
X017322Y014416D01*
X017322Y014699D01*
X016699Y015322D01*
X016416Y015322D01*
X016322Y015416D01*
X016322Y015944D01*
X016416Y016038D01*
X016944Y016038D01*
X017038Y015944D01*
X017038Y015661D01*
X017661Y015038D01*
X017944Y015038D01*
X018038Y014944D01*
X018038Y014416D01*
X017680Y014680D02*
X016680Y015680D01*
X017038Y015713D02*
X017808Y015713D01*
X017966Y015555D02*
X017145Y015555D01*
X017303Y015396D02*
X018125Y015396D01*
X018283Y015238D02*
X017462Y015238D01*
X017620Y015079D02*
X018322Y015079D01*
X018322Y014921D02*
X018038Y014921D01*
X018680Y015180D02*
X017180Y016680D01*
X017538Y016664D02*
X039692Y016664D01*
X039692Y016506D02*
X017694Y016506D01*
X017852Y016347D02*
X039692Y016347D01*
X039692Y016189D02*
X018011Y016189D01*
X017491Y016030D02*
X016952Y016030D01*
X017038Y015872D02*
X017649Y015872D01*
X017332Y016189D02*
X000660Y016189D01*
X000660Y016347D02*
X016890Y016347D01*
X016822Y016506D02*
X000660Y016506D01*
X000660Y016664D02*
X016822Y016664D01*
X016822Y016823D02*
X000660Y016823D01*
X000660Y016981D02*
X016859Y016981D01*
X017501Y016981D02*
X039692Y016981D01*
X039692Y016823D02*
X017538Y016823D01*
X016408Y016030D02*
X000660Y016030D01*
X000660Y015872D02*
X016322Y015872D01*
X016322Y015713D02*
X000660Y015713D01*
X000660Y015555D02*
X016322Y015555D01*
X016341Y015396D02*
X000660Y015396D01*
X000660Y015238D02*
X016783Y015238D01*
X016942Y015079D02*
X000660Y015079D01*
X000660Y014921D02*
X017100Y014921D01*
X017259Y014762D02*
X000660Y014762D01*
X000660Y014604D02*
X017322Y014604D01*
X017322Y014445D02*
X000660Y014445D01*
X000660Y014287D02*
X018947Y014287D01*
X018789Y014128D02*
X000660Y014128D01*
X000660Y013970D02*
X018630Y013970D01*
X018472Y013811D02*
X000660Y013811D01*
X000660Y013653D02*
X018313Y013653D01*
X018155Y013494D02*
X000660Y013494D01*
X000660Y013336D02*
X017996Y013336D01*
X017838Y013177D02*
X000660Y013177D01*
X000660Y013019D02*
X017679Y013019D01*
X017521Y012860D02*
X014839Y012860D01*
X014998Y012702D02*
X017362Y012702D01*
X017204Y012543D02*
X015156Y012543D01*
X015315Y012385D02*
X017045Y012385D01*
X016887Y012226D02*
X015473Y012226D01*
X015632Y012068D02*
X016728Y012068D01*
X015322Y011592D02*
X010920Y011592D01*
X010920Y011434D02*
X015322Y011434D01*
X017505Y010166D02*
X025322Y010166D01*
X025322Y010324D02*
X017663Y010324D01*
X017822Y010483D02*
X025360Y010483D01*
X025322Y010007D02*
X017346Y010007D01*
X017188Y009849D02*
X025389Y009849D01*
X025440Y009690D02*
X017029Y009690D01*
X016871Y009532D02*
X017409Y009532D01*
X017951Y009532D02*
X025440Y009532D01*
X025440Y009373D02*
X018038Y009373D01*
X018038Y009215D02*
X025440Y009215D01*
X025440Y009056D02*
X018038Y009056D01*
X018020Y008898D02*
X025440Y008898D01*
X025322Y007947D02*
X018036Y007947D01*
X017680Y007680D02*
X017680Y005180D01*
X017260Y005252D02*
X009920Y005252D01*
X009920Y005094D02*
X017260Y005094D01*
X017331Y004935D02*
X010038Y004935D01*
X010038Y004777D02*
X017490Y004777D01*
X017317Y005411D02*
X009920Y005411D01*
X009920Y005569D02*
X017440Y005569D01*
X017440Y005728D02*
X009920Y005728D01*
X009920Y005886D02*
X017440Y005886D01*
X017440Y006045D02*
X009920Y006045D01*
X009920Y006203D02*
X017440Y006203D01*
X017440Y006362D02*
X015484Y006362D01*
X015538Y006520D02*
X017440Y006520D01*
X017440Y006679D02*
X015538Y006679D01*
X015538Y006837D02*
X017440Y006837D01*
X017440Y006996D02*
X015487Y006996D01*
X015180Y006680D02*
X014680Y007180D01*
X010680Y007180D01*
X010180Y007680D01*
X010180Y009680D01*
X009822Y009690D02*
X009420Y009690D01*
X009420Y009538D02*
X009420Y011822D01*
X009444Y011822D01*
X009538Y011916D01*
X009538Y012444D01*
X009444Y012538D01*
X008916Y012538D01*
X008822Y012444D01*
X008822Y011916D01*
X008916Y011822D01*
X008940Y011822D01*
X008940Y009538D01*
X008916Y009538D01*
X008822Y009444D01*
X008822Y008916D01*
X008916Y008822D01*
X009444Y008822D01*
X009538Y008916D01*
X009538Y009444D01*
X009444Y009538D01*
X009420Y009538D01*
X009451Y009532D02*
X009822Y009532D01*
X009864Y009373D02*
X009538Y009373D01*
X009538Y009215D02*
X009940Y009215D01*
X009940Y009056D02*
X009538Y009056D01*
X009520Y008898D02*
X009940Y008898D01*
X009940Y008739D02*
X007420Y008739D01*
X007420Y008822D02*
X007444Y008822D01*
X007538Y008916D01*
X007538Y009444D01*
X007444Y009538D01*
X006916Y009538D01*
X006822Y009444D01*
X006822Y008916D01*
X006916Y008822D01*
X006940Y008822D01*
X006940Y007538D01*
X006916Y007538D01*
X006822Y007444D01*
X006822Y006916D01*
X006916Y006822D01*
X007444Y006822D01*
X007538Y006916D01*
X007538Y007444D01*
X007444Y007538D01*
X007420Y007538D01*
X007420Y008822D01*
X007520Y008898D02*
X008840Y008898D01*
X008822Y009056D02*
X007538Y009056D01*
X007538Y009215D02*
X008822Y009215D01*
X008822Y009373D02*
X007538Y009373D01*
X007451Y009532D02*
X008909Y009532D01*
X008940Y009690D02*
X000660Y009690D01*
X000660Y009532D02*
X006909Y009532D01*
X006822Y009373D02*
X000660Y009373D01*
X000660Y009215D02*
X006822Y009215D01*
X006822Y009056D02*
X000660Y009056D01*
X000660Y008898D02*
X006840Y008898D01*
X006940Y008739D02*
X000660Y008739D01*
X000660Y008581D02*
X006940Y008581D01*
X006940Y008422D02*
X000660Y008422D01*
X000660Y008264D02*
X006940Y008264D01*
X006940Y008105D02*
X000660Y008105D01*
X000660Y007947D02*
X006940Y007947D01*
X006940Y007788D02*
X000660Y007788D01*
X000660Y007630D02*
X006940Y007630D01*
X006849Y007471D02*
X000660Y007471D01*
X000660Y007313D02*
X006822Y007313D01*
X006822Y007154D02*
X000660Y007154D01*
X000660Y006996D02*
X006822Y006996D01*
X006900Y006837D02*
X000660Y006837D01*
X000660Y006679D02*
X009322Y006679D01*
X009322Y006837D02*
X007460Y006837D01*
X007538Y006996D02*
X009373Y006996D01*
X009680Y006680D02*
X009680Y004680D01*
X009322Y004618D02*
X005038Y004618D01*
X005038Y004699D02*
X005038Y004416D01*
X004944Y004322D01*
X004416Y004322D01*
X004322Y004416D01*
X004322Y004944D01*
X004416Y005038D01*
X004699Y005038D01*
X005822Y006161D01*
X005822Y006444D01*
X005916Y006538D01*
X006444Y006538D01*
X006538Y006444D01*
X006538Y005916D01*
X006444Y005822D01*
X006161Y005822D01*
X005038Y004699D01*
X005116Y004777D02*
X009322Y004777D01*
X009322Y004935D02*
X005274Y004935D01*
X005433Y005094D02*
X009440Y005094D01*
X009440Y005252D02*
X005591Y005252D01*
X005750Y005411D02*
X009440Y005411D01*
X009440Y005569D02*
X005908Y005569D01*
X006067Y005728D02*
X009440Y005728D01*
X009440Y005886D02*
X006509Y005886D01*
X006538Y006045D02*
X009440Y006045D01*
X009440Y006203D02*
X006538Y006203D01*
X006538Y006362D02*
X009376Y006362D01*
X009322Y006520D02*
X006462Y006520D01*
X005898Y006520D02*
X000660Y006520D01*
X000660Y006362D02*
X005822Y006362D01*
X005822Y006203D02*
X000660Y006203D01*
X000660Y006045D02*
X005705Y006045D01*
X005547Y005886D02*
X000660Y005886D01*
X000660Y005728D02*
X005388Y005728D01*
X005230Y005569D02*
X000660Y005569D01*
X000660Y005411D02*
X005071Y005411D01*
X004913Y005252D02*
X000660Y005252D01*
X000660Y005094D02*
X004754Y005094D01*
X004322Y004935D02*
X000660Y004935D01*
X000660Y004777D02*
X004322Y004777D01*
X004322Y004618D02*
X000660Y004618D01*
X000660Y004460D02*
X004322Y004460D01*
X004680Y004680D02*
X006180Y006180D01*
X007180Y007180D02*
X007180Y009180D01*
X007420Y008581D02*
X009940Y008581D01*
X009940Y008422D02*
X007420Y008422D01*
X007420Y008264D02*
X009940Y008264D01*
X009940Y008105D02*
X007420Y008105D01*
X007420Y007947D02*
X009940Y007947D01*
X009940Y007788D02*
X007420Y007788D01*
X007420Y007630D02*
X009941Y007630D01*
X010050Y007471D02*
X007511Y007471D01*
X007538Y007313D02*
X010208Y007313D01*
X010367Y007154D02*
X007538Y007154D01*
X009987Y006996D02*
X010525Y006996D01*
X010038Y006837D02*
X014684Y006837D01*
X014822Y006679D02*
X010038Y006679D01*
X010038Y006520D02*
X014822Y006520D01*
X014876Y006362D02*
X009984Y006362D01*
X011680Y006680D02*
X012180Y006180D01*
X014887Y007313D02*
X017440Y007313D01*
X017440Y007154D02*
X015045Y007154D01*
X016322Y007471D02*
X010728Y007471D01*
X010570Y007630D02*
X016322Y007630D01*
X017038Y007630D02*
X017322Y007630D01*
X017322Y007788D02*
X017038Y007788D01*
X017036Y007947D02*
X017324Y007947D01*
X017322Y007471D02*
X017038Y007471D01*
X015757Y008264D02*
X011603Y008264D01*
X011761Y008422D02*
X015322Y008422D01*
X015322Y008581D02*
X011920Y008581D01*
X012078Y008739D02*
X015322Y008739D01*
X015322Y008898D02*
X012237Y008898D01*
X012388Y009056D02*
X015822Y009056D01*
X015822Y009215D02*
X012420Y009215D01*
X012420Y009373D02*
X015822Y009373D01*
X016180Y009180D02*
X017680Y009180D01*
X017340Y008898D02*
X016520Y008898D01*
X016668Y010007D02*
X010920Y010007D01*
X010920Y009849D02*
X012009Y009849D01*
X011940Y009690D02*
X010920Y009690D01*
X010920Y009532D02*
X011940Y009532D01*
X011940Y009373D02*
X010920Y009373D01*
X010920Y009215D02*
X011875Y009215D01*
X011717Y009056D02*
X010920Y009056D01*
X011038Y008898D02*
X011558Y008898D01*
X011400Y008739D02*
X011038Y008739D01*
X011038Y008581D02*
X011241Y008581D01*
X010680Y008680D02*
X010680Y012680D01*
X010521Y012860D02*
X000660Y012860D01*
X000660Y012702D02*
X010440Y012702D01*
X010440Y012543D02*
X000660Y012543D01*
X000660Y012385D02*
X002822Y012385D01*
X002822Y012444D02*
X002822Y011916D01*
X002916Y011822D01*
X003444Y011822D01*
X003538Y011916D01*
X003538Y011940D01*
X004822Y011940D01*
X004822Y011916D01*
X004916Y011822D01*
X005444Y011822D01*
X005538Y011916D01*
X005538Y012444D01*
X005444Y012538D01*
X004916Y012538D01*
X004822Y012444D01*
X004822Y012420D01*
X003538Y012420D01*
X003538Y012444D01*
X003444Y012538D01*
X002916Y012538D01*
X002822Y012444D01*
X002822Y012226D02*
X000660Y012226D01*
X000660Y012068D02*
X002822Y012068D01*
X002828Y011909D02*
X000660Y011909D01*
X000660Y011751D02*
X008940Y011751D01*
X008940Y011592D02*
X000660Y011592D01*
X000660Y011434D02*
X008940Y011434D01*
X008940Y011275D02*
X000660Y011275D01*
X000660Y011117D02*
X008940Y011117D01*
X008940Y010958D02*
X000660Y010958D01*
X000660Y010800D02*
X008940Y010800D01*
X008940Y010641D02*
X000660Y010641D01*
X000660Y010483D02*
X008940Y010483D01*
X008940Y010324D02*
X000660Y010324D01*
X000660Y010166D02*
X008940Y010166D01*
X008940Y010007D02*
X000660Y010007D01*
X000660Y009849D02*
X008940Y009849D01*
X009420Y009849D02*
X009822Y009849D01*
X009885Y010007D02*
X009420Y010007D01*
X009420Y010166D02*
X010440Y010166D01*
X010440Y010324D02*
X009420Y010324D01*
X009420Y010483D02*
X010440Y010483D01*
X010440Y010641D02*
X009420Y010641D01*
X009420Y010800D02*
X010440Y010800D01*
X010440Y010958D02*
X009420Y010958D01*
X009420Y011117D02*
X010440Y011117D01*
X010440Y011275D02*
X009420Y011275D01*
X009420Y011434D02*
X010440Y011434D01*
X010440Y011592D02*
X009420Y011592D01*
X009420Y011751D02*
X010440Y011751D01*
X010440Y011909D02*
X009532Y011909D01*
X009538Y012068D02*
X010440Y012068D01*
X010440Y012226D02*
X009538Y012226D01*
X009538Y012385D02*
X010440Y012385D01*
X009180Y012180D02*
X009180Y009180D01*
X011180Y010180D02*
X011180Y010680D01*
X008828Y011909D02*
X005532Y011909D01*
X005538Y012068D02*
X008822Y012068D01*
X008822Y012226D02*
X005538Y012226D01*
X005538Y012385D02*
X008822Y012385D01*
X005180Y012180D02*
X003180Y012180D01*
X003532Y011909D02*
X004828Y011909D01*
X001680Y009680D02*
X001180Y009680D01*
X001180Y008180D02*
X001680Y008180D01*
X005038Y004460D02*
X009322Y004460D01*
X017980Y010641D02*
X039692Y010641D01*
X039692Y010800D02*
X018139Y010800D01*
X018297Y010958D02*
X039692Y010958D01*
X039692Y011117D02*
X018456Y011117D01*
X018614Y011275D02*
X039692Y011275D01*
X039692Y011434D02*
X037047Y011434D01*
X037150Y011476D02*
X037384Y011710D01*
X037510Y012015D01*
X037510Y012345D01*
X037384Y012650D01*
X037150Y012884D01*
X036845Y013010D01*
X036515Y013010D01*
X036210Y012884D01*
X035976Y012650D01*
X035925Y012526D01*
X035916Y012534D01*
X035763Y012597D01*
X035597Y012597D01*
X035444Y012534D01*
X035326Y012416D01*
X035263Y012263D01*
X035263Y012097D01*
X035326Y011944D01*
X035444Y011826D01*
X035597Y011763D01*
X035763Y011763D01*
X035916Y011826D01*
X035925Y011834D01*
X035976Y011710D01*
X036210Y011476D01*
X036515Y011350D01*
X036845Y011350D01*
X037150Y011476D01*
X037266Y011592D02*
X039692Y011592D01*
X039692Y011751D02*
X037400Y011751D01*
X037466Y011909D02*
X039692Y011909D01*
X039692Y012068D02*
X037510Y012068D01*
X037510Y012226D02*
X039692Y012226D01*
X039692Y012385D02*
X037494Y012385D01*
X037428Y012543D02*
X039692Y012543D01*
X039692Y012702D02*
X037332Y012702D01*
X037174Y012860D02*
X039692Y012860D01*
X039692Y013019D02*
X020358Y013019D01*
X020516Y013177D02*
X039692Y013177D01*
X039692Y013336D02*
X020958Y013336D01*
X021038Y013494D02*
X039692Y013494D01*
X036186Y012860D02*
X021174Y012860D01*
X021332Y012702D02*
X036028Y012702D01*
X035932Y012543D02*
X035895Y012543D01*
X035465Y012543D02*
X034895Y012543D01*
X034916Y012534D02*
X034763Y012597D01*
X034597Y012597D01*
X034444Y012534D01*
X034326Y012416D01*
X034263Y012263D01*
X034263Y012097D01*
X034326Y011944D01*
X034444Y011826D01*
X034597Y011763D01*
X034763Y011763D01*
X034916Y011826D01*
X035034Y011944D01*
X035097Y012097D01*
X035097Y012263D01*
X035034Y012416D01*
X034916Y012534D01*
X035047Y012385D02*
X035313Y012385D01*
X035263Y012226D02*
X035097Y012226D01*
X035085Y012068D02*
X035275Y012068D01*
X035361Y011909D02*
X034999Y011909D01*
X034361Y011909D02*
X033999Y011909D01*
X034034Y011944D02*
X034097Y012097D01*
X034097Y012263D01*
X034034Y012416D01*
X033916Y012534D01*
X033763Y012597D01*
X033597Y012597D01*
X033444Y012534D01*
X033326Y012416D01*
X033263Y012263D01*
X033263Y012097D01*
X033326Y011944D01*
X033444Y011826D01*
X033597Y011763D01*
X033763Y011763D01*
X033916Y011826D01*
X034034Y011944D01*
X034085Y012068D02*
X034275Y012068D01*
X034263Y012226D02*
X034097Y012226D01*
X034047Y012385D02*
X034313Y012385D01*
X034465Y012543D02*
X033895Y012543D01*
X033465Y012543D02*
X032895Y012543D01*
X032916Y012534D02*
X032763Y012597D01*
X032597Y012597D01*
X032444Y012534D01*
X032326Y012416D01*
X032263Y012263D01*
X032263Y012097D01*
X032326Y011944D01*
X032444Y011826D01*
X032597Y011763D01*
X032763Y011763D01*
X032916Y011826D01*
X033034Y011944D01*
X033097Y012097D01*
X033097Y012263D01*
X033034Y012416D01*
X032916Y012534D01*
X033047Y012385D02*
X033313Y012385D01*
X033263Y012226D02*
X033097Y012226D01*
X033085Y012068D02*
X033275Y012068D01*
X033361Y011909D02*
X032999Y011909D01*
X032361Y011909D02*
X031999Y011909D01*
X032034Y011944D02*
X032097Y012097D01*
X032097Y012263D01*
X032034Y012416D01*
X031916Y012534D01*
X031763Y012597D01*
X031597Y012597D01*
X031444Y012534D01*
X031326Y012416D01*
X031263Y012263D01*
X031263Y012097D01*
X031326Y011944D01*
X031444Y011826D01*
X031597Y011763D01*
X031763Y011763D01*
X031916Y011826D01*
X032034Y011944D01*
X032085Y012068D02*
X032275Y012068D01*
X032263Y012226D02*
X032097Y012226D01*
X032047Y012385D02*
X032313Y012385D01*
X032465Y012543D02*
X031895Y012543D01*
X031465Y012543D02*
X030895Y012543D01*
X030916Y012534D02*
X030763Y012597D01*
X030597Y012597D01*
X030444Y012534D01*
X030326Y012416D01*
X030263Y012263D01*
X030263Y012097D01*
X030326Y011944D01*
X030444Y011826D01*
X030597Y011763D01*
X030763Y011763D01*
X030916Y011826D01*
X031034Y011944D01*
X031097Y012097D01*
X031097Y012263D01*
X031034Y012416D01*
X030916Y012534D01*
X031047Y012385D02*
X031313Y012385D01*
X031263Y012226D02*
X031097Y012226D01*
X031085Y012068D02*
X031275Y012068D01*
X031361Y011909D02*
X030999Y011909D01*
X030361Y011909D02*
X029999Y011909D01*
X030034Y011944D02*
X030097Y012097D01*
X030097Y012263D01*
X030034Y012416D01*
X029916Y012534D01*
X029763Y012597D01*
X029597Y012597D01*
X029444Y012534D01*
X029326Y012416D01*
X029263Y012263D01*
X029263Y012097D01*
X029326Y011944D01*
X029444Y011826D01*
X029597Y011763D01*
X029763Y011763D01*
X029916Y011826D01*
X030034Y011944D01*
X030085Y012068D02*
X030275Y012068D01*
X030263Y012226D02*
X030097Y012226D01*
X030047Y012385D02*
X030313Y012385D01*
X030465Y012543D02*
X029895Y012543D01*
X029465Y012543D02*
X028895Y012543D01*
X028916Y012534D02*
X028763Y012597D01*
X028597Y012597D01*
X028444Y012534D01*
X028326Y012416D01*
X028263Y012263D01*
X028263Y012097D01*
X028326Y011944D01*
X028444Y011826D01*
X028597Y011763D01*
X028763Y011763D01*
X028916Y011826D01*
X029034Y011944D01*
X029097Y012097D01*
X029097Y012263D01*
X029034Y012416D01*
X028916Y012534D01*
X029047Y012385D02*
X029313Y012385D01*
X029263Y012226D02*
X029097Y012226D01*
X029085Y012068D02*
X029275Y012068D01*
X029361Y011909D02*
X028999Y011909D01*
X028361Y011909D02*
X027999Y011909D01*
X028034Y011944D02*
X028097Y012097D01*
X028097Y012263D01*
X028034Y012416D01*
X027916Y012534D01*
X027763Y012597D01*
X027597Y012597D01*
X027444Y012534D01*
X027326Y012416D01*
X027263Y012263D01*
X027263Y012097D01*
X027326Y011944D01*
X027444Y011826D01*
X027597Y011763D01*
X027763Y011763D01*
X027916Y011826D01*
X028034Y011944D01*
X028085Y012068D02*
X028275Y012068D01*
X028263Y012226D02*
X028097Y012226D01*
X028047Y012385D02*
X028313Y012385D01*
X028465Y012543D02*
X027895Y012543D01*
X027465Y012543D02*
X026895Y012543D01*
X026916Y012534D02*
X026763Y012597D01*
X026597Y012597D01*
X026444Y012534D01*
X026326Y012416D01*
X026263Y012263D01*
X026263Y012097D01*
X026326Y011944D01*
X026444Y011826D01*
X026597Y011763D01*
X026763Y011763D01*
X026916Y011826D01*
X027034Y011944D01*
X027097Y012097D01*
X027097Y012263D01*
X027034Y012416D01*
X026916Y012534D01*
X027047Y012385D02*
X027313Y012385D01*
X027263Y012226D02*
X027097Y012226D01*
X027085Y012068D02*
X027275Y012068D01*
X027361Y011909D02*
X026999Y011909D01*
X026361Y011909D02*
X025999Y011909D01*
X026034Y011944D02*
X026097Y012097D01*
X026097Y012263D01*
X026034Y012416D01*
X025916Y012534D01*
X025763Y012597D01*
X025597Y012597D01*
X025444Y012534D01*
X025326Y012416D01*
X025263Y012263D01*
X025263Y012097D01*
X025326Y011944D01*
X025444Y011826D01*
X025597Y011763D01*
X025763Y011763D01*
X025916Y011826D01*
X026034Y011944D01*
X026085Y012068D02*
X026275Y012068D01*
X026263Y012226D02*
X026097Y012226D01*
X026047Y012385D02*
X026313Y012385D01*
X026465Y012543D02*
X025895Y012543D01*
X025465Y012543D02*
X023895Y012543D01*
X023916Y012534D02*
X023763Y012597D01*
X023597Y012597D01*
X023444Y012534D01*
X023326Y012416D01*
X023263Y012263D01*
X023263Y012097D01*
X023326Y011944D01*
X023444Y011826D01*
X023597Y011763D01*
X023763Y011763D01*
X023916Y011826D01*
X024034Y011944D01*
X024097Y012097D01*
X024097Y012263D01*
X024034Y012416D01*
X023916Y012534D01*
X024047Y012385D02*
X025313Y012385D01*
X025263Y012226D02*
X024097Y012226D01*
X024085Y012068D02*
X025275Y012068D01*
X025361Y011909D02*
X023999Y011909D01*
X023361Y011909D02*
X022999Y011909D01*
X023034Y011944D02*
X023097Y012097D01*
X023097Y012263D01*
X023034Y012416D01*
X022916Y012534D01*
X022763Y012597D01*
X022597Y012597D01*
X022444Y012534D01*
X022326Y012416D01*
X022263Y012263D01*
X022263Y012097D01*
X022326Y011944D01*
X022444Y011826D01*
X022597Y011763D01*
X022763Y011763D01*
X022916Y011826D01*
X023034Y011944D01*
X023085Y012068D02*
X023275Y012068D01*
X023263Y012226D02*
X023097Y012226D01*
X023047Y012385D02*
X023313Y012385D01*
X023465Y012543D02*
X022895Y012543D01*
X022465Y012543D02*
X021895Y012543D01*
X022047Y012385D02*
X022313Y012385D01*
X022263Y012226D02*
X022097Y012226D01*
X022085Y012068D02*
X022275Y012068D01*
X022361Y011909D02*
X021999Y011909D01*
X021400Y011751D02*
X035960Y011751D01*
X036094Y011592D02*
X021266Y011592D01*
X021047Y011434D02*
X036313Y011434D01*
X030180Y007680D02*
X029680Y007680D01*
X023933Y007630D02*
X022902Y007630D01*
X022877Y007655D02*
X022483Y007655D01*
X022205Y007377D01*
X022205Y006983D01*
X022483Y006705D01*
X022877Y006705D01*
X023155Y006983D01*
X023155Y007377D01*
X022877Y007655D01*
X023061Y007471D02*
X023750Y007471D01*
X023683Y007313D02*
X023155Y007313D01*
X023155Y007154D02*
X023670Y007154D01*
X023704Y006996D02*
X023155Y006996D01*
X023009Y006837D02*
X023802Y006837D01*
X022351Y006837D02*
X022009Y006837D01*
X022155Y006996D02*
X022205Y006996D01*
X022205Y007154D02*
X022155Y007154D01*
X022155Y007313D02*
X022205Y007313D01*
X022299Y007471D02*
X022061Y007471D01*
X021902Y007630D02*
X022458Y007630D01*
X028680Y004180D02*
X029180Y004180D01*
X025680Y002180D02*
X025180Y002180D01*
X027680Y001180D02*
X028180Y001180D01*
X020313Y011434D02*
X018773Y011434D01*
X018931Y011592D02*
X020094Y011592D01*
X019960Y011751D02*
X019090Y011751D01*
X019248Y011909D02*
X019894Y011909D01*
X019850Y012068D02*
X019407Y012068D01*
X019565Y012226D02*
X019850Y012226D01*
X019866Y012385D02*
X019724Y012385D01*
X019882Y012543D02*
X019932Y012543D01*
X021428Y012543D02*
X021465Y012543D01*
X024680Y015680D02*
X027180Y016680D01*
X027597Y017763D02*
X027444Y017826D01*
X027326Y017944D01*
X027263Y018097D01*
X027263Y018263D01*
X027326Y018416D01*
X027444Y018534D01*
X027597Y018597D01*
X027763Y018597D01*
X027916Y018534D01*
X028034Y018416D01*
X028097Y018263D01*
X028097Y018097D01*
X028034Y017944D01*
X027916Y017826D01*
X027763Y017763D01*
X027597Y017763D01*
X027570Y017774D02*
X026790Y017774D01*
X026763Y017763D02*
X026916Y017826D01*
X027034Y017944D01*
X027097Y018097D01*
X027097Y018263D01*
X027034Y018416D01*
X026916Y018534D01*
X026763Y018597D01*
X026597Y018597D01*
X026444Y018534D01*
X026326Y018416D01*
X026263Y018263D01*
X026263Y018097D01*
X026326Y017944D01*
X026444Y017826D01*
X026597Y017763D01*
X026763Y017763D01*
X026570Y017774D02*
X025790Y017774D01*
X025763Y017763D02*
X025916Y017826D01*
X026034Y017944D01*
X026097Y018097D01*
X026097Y018263D01*
X026034Y018416D01*
X025916Y018534D01*
X025763Y018597D01*
X025597Y018597D01*
X025444Y018534D01*
X025326Y018416D01*
X025263Y018263D01*
X025263Y018097D01*
X025326Y017944D01*
X025444Y017826D01*
X025597Y017763D01*
X025763Y017763D01*
X025570Y017774D02*
X024790Y017774D01*
X024763Y017763D02*
X024916Y017826D01*
X025034Y017944D01*
X025097Y018097D01*
X025097Y018263D01*
X025034Y018416D01*
X024916Y018534D01*
X024763Y018597D01*
X024597Y018597D01*
X024444Y018534D01*
X024326Y018416D01*
X024263Y018263D01*
X024263Y018097D01*
X024326Y017944D01*
X024444Y017826D01*
X024597Y017763D01*
X024763Y017763D01*
X024570Y017774D02*
X023790Y017774D01*
X023763Y017763D02*
X023916Y017826D01*
X024034Y017944D01*
X024097Y018097D01*
X024097Y018263D01*
X024034Y018416D01*
X023916Y018534D01*
X023763Y018597D01*
X023597Y018597D01*
X023444Y018534D01*
X023326Y018416D01*
X023263Y018263D01*
X023263Y018097D01*
X023326Y017944D01*
X023444Y017826D01*
X023597Y017763D01*
X023763Y017763D01*
X023570Y017774D02*
X021790Y017774D01*
X021763Y017763D02*
X021916Y017826D01*
X022034Y017944D01*
X022097Y018097D01*
X022097Y018263D01*
X022034Y018416D01*
X021916Y018534D01*
X021763Y018597D01*
X021597Y018597D01*
X021444Y018534D01*
X021435Y018526D01*
X021384Y018650D01*
X021150Y018884D01*
X020845Y019010D01*
X020515Y019010D01*
X020210Y018884D01*
X019976Y018650D01*
X019850Y018345D01*
X019850Y018015D01*
X019976Y017710D01*
X020210Y017476D01*
X020515Y017350D01*
X020845Y017350D01*
X021150Y017476D01*
X021384Y017710D01*
X021435Y017834D01*
X021444Y017826D01*
X021597Y017763D01*
X021763Y017763D01*
X021570Y017774D02*
X021410Y017774D01*
X021289Y017615D02*
X036071Y017615D01*
X035976Y017710D02*
X035955Y017763D01*
X035356Y017763D01*
X035263Y017856D01*
X035263Y018504D01*
X035356Y018597D01*
X035955Y018597D01*
X035976Y018650D01*
X036210Y018884D01*
X036515Y019010D01*
X036845Y019010D01*
X037150Y018884D01*
X037384Y018650D01*
X037510Y018345D01*
X037510Y018015D01*
X037384Y017710D01*
X037150Y017476D01*
X036845Y017350D01*
X036515Y017350D01*
X036210Y017476D01*
X035976Y017710D01*
X036258Y017457D02*
X021102Y017457D01*
X020258Y017457D02*
X000660Y017457D01*
X000660Y017615D02*
X020071Y017615D01*
X019950Y017774D02*
X000660Y017774D01*
X000660Y017932D02*
X019884Y017932D01*
X019850Y018091D02*
X000660Y018091D01*
X000660Y018249D02*
X019850Y018249D01*
X019876Y018408D02*
X000660Y018408D01*
X000660Y018566D02*
X019942Y018566D01*
X020051Y018725D02*
X000660Y018725D01*
X000660Y018883D02*
X020209Y018883D01*
X021151Y018883D02*
X036209Y018883D01*
X036051Y018725D02*
X021309Y018725D01*
X021418Y018566D02*
X021521Y018566D01*
X021839Y018566D02*
X023521Y018566D01*
X023322Y018408D02*
X022038Y018408D01*
X022097Y018249D02*
X023263Y018249D01*
X023265Y018091D02*
X022095Y018091D01*
X022022Y017932D02*
X023338Y017932D01*
X024022Y017932D02*
X024338Y017932D01*
X024265Y018091D02*
X024095Y018091D01*
X024097Y018249D02*
X024263Y018249D01*
X024322Y018408D02*
X024038Y018408D01*
X023839Y018566D02*
X024521Y018566D01*
X024839Y018566D02*
X025521Y018566D01*
X025322Y018408D02*
X025038Y018408D01*
X025097Y018249D02*
X025263Y018249D01*
X025265Y018091D02*
X025095Y018091D01*
X025022Y017932D02*
X025338Y017932D01*
X026022Y017932D02*
X026338Y017932D01*
X026265Y018091D02*
X026095Y018091D01*
X026097Y018249D02*
X026263Y018249D01*
X026322Y018408D02*
X026038Y018408D01*
X025839Y018566D02*
X026521Y018566D01*
X026839Y018566D02*
X027521Y018566D01*
X027322Y018408D02*
X027038Y018408D01*
X027097Y018249D02*
X027263Y018249D01*
X027265Y018091D02*
X027095Y018091D01*
X027022Y017932D02*
X027338Y017932D01*
X027790Y017774D02*
X028570Y017774D01*
X028597Y017763D02*
X028763Y017763D01*
X028916Y017826D01*
X029034Y017944D01*
X029097Y018097D01*
X029097Y018263D01*
X029034Y018416D01*
X028916Y018534D01*
X028763Y018597D01*
X028597Y018597D01*
X028444Y018534D01*
X028326Y018416D01*
X028263Y018263D01*
X028263Y018097D01*
X028326Y017944D01*
X028444Y017826D01*
X028597Y017763D01*
X028790Y017774D02*
X029570Y017774D01*
X029597Y017763D02*
X029763Y017763D01*
X029916Y017826D01*
X030034Y017944D01*
X030097Y018097D01*
X030097Y018263D01*
X030034Y018416D01*
X029916Y018534D01*
X029763Y018597D01*
X029597Y018597D01*
X029444Y018534D01*
X029326Y018416D01*
X029263Y018263D01*
X029263Y018097D01*
X029326Y017944D01*
X029444Y017826D01*
X029597Y017763D01*
X029790Y017774D02*
X030570Y017774D01*
X030597Y017763D02*
X030763Y017763D01*
X030916Y017826D01*
X031034Y017944D01*
X031097Y018097D01*
X031097Y018263D01*
X031034Y018416D01*
X030916Y018534D01*
X030763Y018597D01*
X030597Y018597D01*
X030444Y018534D01*
X030326Y018416D01*
X030263Y018263D01*
X030263Y018097D01*
X030326Y017944D01*
X030444Y017826D01*
X030597Y017763D01*
X030790Y017774D02*
X031570Y017774D01*
X031597Y017763D02*
X031763Y017763D01*
X031916Y017826D01*
X032034Y017944D01*
X032097Y018097D01*
X032097Y018263D01*
X032034Y018416D01*
X031916Y018534D01*
X031763Y018597D01*
X031597Y018597D01*
X031444Y018534D01*
X031326Y018416D01*
X031263Y018263D01*
X031263Y018097D01*
X031326Y017944D01*
X031444Y017826D01*
X031597Y017763D01*
X031790Y017774D02*
X032570Y017774D01*
X032597Y017763D02*
X032763Y017763D01*
X032916Y017826D01*
X033034Y017944D01*
X033097Y018097D01*
X033097Y018263D01*
X033034Y018416D01*
X032916Y018534D01*
X032763Y018597D01*
X032597Y018597D01*
X032444Y018534D01*
X032326Y018416D01*
X032263Y018263D01*
X032263Y018097D01*
X032326Y017944D01*
X032444Y017826D01*
X032597Y017763D01*
X032790Y017774D02*
X033570Y017774D01*
X033597Y017763D02*
X033444Y017826D01*
X033326Y017944D01*
X033263Y018097D01*
X033263Y018263D01*
X033326Y018416D01*
X033444Y018534D01*
X033597Y018597D01*
X033763Y018597D01*
X033916Y018534D01*
X034034Y018416D01*
X034097Y018263D01*
X034097Y018097D01*
X034034Y017944D01*
X033916Y017826D01*
X033763Y017763D01*
X033597Y017763D01*
X033790Y017774D02*
X034570Y017774D01*
X034597Y017763D02*
X034763Y017763D01*
X034916Y017826D01*
X035034Y017944D01*
X035097Y018097D01*
X035097Y018263D01*
X035034Y018416D01*
X034916Y018534D01*
X034763Y018597D01*
X034597Y018597D01*
X034444Y018534D01*
X034326Y018416D01*
X034263Y018263D01*
X034263Y018097D01*
X034326Y017944D01*
X034444Y017826D01*
X034597Y017763D01*
X034790Y017774D02*
X035345Y017774D01*
X035263Y017932D02*
X035022Y017932D01*
X035095Y018091D02*
X035263Y018091D01*
X035263Y018249D02*
X035097Y018249D01*
X035038Y018408D02*
X035263Y018408D01*
X035325Y018566D02*
X034839Y018566D01*
X034521Y018566D02*
X033839Y018566D01*
X034038Y018408D02*
X034322Y018408D01*
X034263Y018249D02*
X034097Y018249D01*
X034095Y018091D02*
X034265Y018091D01*
X034338Y017932D02*
X034022Y017932D01*
X033338Y017932D02*
X033022Y017932D01*
X033095Y018091D02*
X033265Y018091D01*
X033263Y018249D02*
X033097Y018249D01*
X033038Y018408D02*
X033322Y018408D01*
X033521Y018566D02*
X032839Y018566D01*
X032521Y018566D02*
X031839Y018566D01*
X032038Y018408D02*
X032322Y018408D01*
X032263Y018249D02*
X032097Y018249D01*
X032095Y018091D02*
X032265Y018091D01*
X032338Y017932D02*
X032022Y017932D01*
X031338Y017932D02*
X031022Y017932D01*
X031095Y018091D02*
X031265Y018091D01*
X031263Y018249D02*
X031097Y018249D01*
X031038Y018408D02*
X031322Y018408D01*
X031521Y018566D02*
X030839Y018566D01*
X030521Y018566D02*
X029839Y018566D01*
X030038Y018408D02*
X030322Y018408D01*
X030263Y018249D02*
X030097Y018249D01*
X030095Y018091D02*
X030265Y018091D01*
X030338Y017932D02*
X030022Y017932D01*
X029338Y017932D02*
X029022Y017932D01*
X029095Y018091D02*
X029265Y018091D01*
X029263Y018249D02*
X029097Y018249D01*
X029038Y018408D02*
X029322Y018408D01*
X029521Y018566D02*
X028839Y018566D01*
X028521Y018566D02*
X027839Y018566D01*
X028038Y018408D02*
X028322Y018408D01*
X028263Y018249D02*
X028097Y018249D01*
X028095Y018091D02*
X028265Y018091D01*
X028338Y017932D02*
X028022Y017932D01*
X032180Y016680D02*
X034680Y015680D01*
X037102Y017457D02*
X039692Y017457D01*
X039692Y017615D02*
X037289Y017615D01*
X037410Y017774D02*
X039692Y017774D01*
X039692Y017932D02*
X037476Y017932D01*
X037510Y018091D02*
X039692Y018091D01*
X039692Y018249D02*
X037510Y018249D01*
X037484Y018408D02*
X039692Y018408D01*
X039692Y018566D02*
X037418Y018566D01*
X037309Y018725D02*
X039692Y018725D01*
X039692Y018883D02*
X037151Y018883D01*
X039692Y019042D02*
X000660Y019042D01*
X000660Y019200D02*
X039692Y019200D01*
X039692Y019359D02*
X000660Y019359D01*
X000660Y019517D02*
X039692Y019517D01*
X039692Y017298D02*
X000660Y017298D01*
X000660Y017140D02*
X039692Y017140D01*
D16*
X032180Y016680D03*
X027180Y016680D03*
X020680Y015680D03*
X020680Y014680D03*
X020680Y013680D03*
X018680Y015180D03*
X017680Y014680D03*
X016680Y015680D03*
X017180Y016680D03*
X009180Y012180D03*
X011180Y010180D03*
X010180Y009680D03*
X009180Y009180D03*
X010680Y008680D03*
X011180Y008180D03*
X009680Y006680D03*
X007180Y007180D03*
X006180Y006180D03*
X004680Y004680D03*
X009680Y004680D03*
X012180Y006180D03*
X015180Y006680D03*
X016680Y007680D03*
X017680Y007680D03*
X015680Y008680D03*
X016180Y009180D03*
X017680Y009180D03*
X016180Y010680D03*
X015680Y011680D03*
X014680Y011680D03*
X007180Y009180D03*
X001680Y009680D03*
X001680Y008180D03*
X003180Y012180D03*
X005180Y012180D03*
X025180Y002180D03*
X027680Y001180D03*
X029180Y004180D03*
X029180Y005180D03*
X025680Y005180D03*
X030180Y007680D03*
X034180Y008180D03*
X036680Y008180D03*
X036680Y010180D03*
X034180Y010180D03*
X025680Y010180D03*
X025680Y008180D03*
M02*
